#!OML:ASF I:\Actors\actors\Patient Classification 1\Patient 1\Session 1\Subject1.ASF
:FULLY-SPECIFIED
:DEGREES
1228
root 0.183821 17.698 8.15734 31.073 2.65695 -8.8603
lowerback 24.0501 -0.151202 6.25095
upperback 1.24457 1.50494 0.172829
thorax -11.9467 0.345743 -3.89945
lowerneck -2.06549 -8.9424 -4.78092
upperneck -25.5856 -8.81061 20.9224
head -5.97768 -5.68602 8.04306
rclavicle -3.57812e-015 -7.15625e-015
rhumerus 43.5593 44.7147 -48.909
rradius 34.7416
rwrist 23.4909
rhand 3.60855 -22.7955
rfingers 7.12502
rthumb 29.0419 -50.552
lclavicle -3.57812e-015 -7.15625e-015
lhumerus 39.6698 -44.6229 54.3763
lradius 31.4774
lwrist -5.59775
lhand -23.7727 -26.2425
lfingers 7.12502
lthumb 2.69688 3.72016
rfemur -29.1282 27.4372 12.24
rtibia -1.87542
rfoot -12.8217 -34.16
rtoes 18.0095
lfemur -19.6099 3.43922 -5.5061
ltibia -12.9883
lfoot -4.91517 9.33945
ltoes 44.232
1229
root 0.186464 17.6984 8.15913 31.0597 2.76204 -8.92881
lowerback 24.0762 -0.339064 6.13341
upperback 1.2629 1.24532 0.289542
thorax -11.9741 0.236978 -3.61396
lowerneck -1.7456 -10.6931 -6.42108
upperneck -25.119 -11.047 23.7057
head -5.20294 -6.88758 9.15021
rclavicle 2.3059e-014 1.98785e-014
rhumerus 44.1563 45.0074 -48.718
rradius 34.6966
rwrist 23.3644
rhand 3.83659 -22.4506
rfingers 7.12502
rthumb 29.2597 -50.1694
lclavicle 2.3059e-014 1.98785e-014
lhumerus 39.1306 -44.1342 54.6304
lradius 31.5406
lwrist -5.52753
lhand -23.7324 -25.7944
lfingers 7.12502
lthumb 2.73576 4.16781
rfemur -29.1003 27.3749 12.3615
rtibia -1.86217
rfoot -12.646 -34.1674
rtoes 17.5998
lfemur -19.5179 3.14655 -5.3032
ltibia -13.1348
lfoot -5.07764 9.57949
ltoes 44.5275
1230
root 0.189061 17.6996 8.16039 31.0537 2.82626 -8.98085
lowerback 24.104 -0.452845 6.03851
upperback 1.24844 1.09259 0.42962
thorax -12.0273 0.175215 -3.35056
lowerneck -0.785134 -12.2233 -8.65956
upperneck -24.8024 -13.0033 26.9064
head -4.42434 -7.98046 10.4946
rclavicle 1.19271e-015 -2.42517e-014
rhumerus 44.5022 45.2382 -48.5939
rradius 34.7201
rwrist 23.3522
rhand 4.2341 -22.2507
rfingers 7.12502
rthumb 29.6392 -49.9027
lclavicle 1.19271e-015 -2.42517e-014
lhumerus 38.6862 -43.8328 54.9455
lradius 31.5749
lwrist -5.42764
lhand -23.8267 -25.5381
lfingers 7.12502
lthumb 2.6447 4.42522
rfemur -29.1289 27.3225 12.4193
rtibia -1.79327
rfoot -12.6392 -34.1434
rtoes 17.6211
lfemur -19.3622 2.8875 -5.11307
ltibia -13.3757
lfoot -5.27984 9.79767
ltoes 45.1467
1231
root 0.191075 17.7011 8.16246 31.0465 2.85448 -8.9951
lowerback 24.0868 -0.515884 5.91367
upperback 1.24039 0.997697 0.597834
thorax -12.0424 0.144192 -3.05652
lowerneck 0.80967 -13.5144 -10.2041
upperneck -25.4796 -14.6414 29.4151
head -4.14871 -9.01471 11.6357
rclavicle -8.74653e-015 -9.54166e-015
rhumerus 44.8642 45.4917 -48.2781
rradius 34.7646
rwrist 23.2976
rhand 4.46841 -22.3172
rfingers 7.12502
rthumb 29.8628 -49.9292
lclavicle -8.74653e-015 -9.54166e-015
lhumerus 38.3088 -43.5922 55.3364
lradius 31.5551
lwrist -5.30251
lhand -24.0342 -25.5585
lfingers 7.12502
lthumb 2.4443 4.40726
rfemur -29.1519 27.2861 12.4323
rtibia -1.73153
rfoot -12.7094 -34.1084
rtoes 17.7515
lfemur -19.274 2.63564 -4.99153
ltibia -13.5007
lfoot -5.45953 10.0039
ltoes 45.3791
1232
root 0.193805 17.7023 8.16549 31.0303 2.87663 -8.99251
lowerback 24.0579 -0.56919 5.78743
upperback 1.26806 0.914508 0.781194
thorax -12.0079 0.121341 -2.7484
lowerneck 3.941 -13.9014 -11.6771
upperneck -27.8502 -14.8343 32.0231
head -4.89571 -9.53123 13.3612
rclavicle -3.18055e-015 -3.97569e-016
rhumerus 45.3272 45.7253 -47.8009
rradius 34.7969
rwrist 23.1577
rhand 4.4209 -22.418
rfingers 7.12502
rthumb 29.8175 -50.0382
lclavicle -3.18055e-015 -3.97569e-016
lhumerus 37.9312 -43.2465 55.843
lradius 31.5036
lwrist -5.27758
lhand -24.2867 -25.5924
lfingers 7.12502
lthumb 2.20042 4.37596
rfemur -29.1383 27.2491 12.436
rtibia -1.71197
rfoot -12.7624 -34.0652
rtoes 17.8883
lfemur -19.2361 2.37054 -4.90971
ltibia -13.531
lfoot -5.60879 10.2194
ltoes 45.4209
